<svg xmlns="http://www.w3.org/2000/svg" viewBox="0 0 128 128" fill="none">
  <ellipse cx="66" cy="104" rx="42" ry="9" fill="#292524" opacity="0.35"/>
  <path d="M22 78 C12 56 26 28 54 22 C80 16 108 30 114 54 C120 78 104 100 76 106 C46 112 30 96 22 78Z" fill="#8a8178"/>
  <path d="M22 78 C12 56 26 28 54 22 C80 16 108 30 114 54 C120 78 104 100 76 106 C46 112 30 96 22 78Z" fill="url(#rockShade)"/>
  <defs>
    <linearGradient id="rockShade" x1="30" y1="24" x2="100" y2="100">
      <stop stop-color="#c4b5a5"/>
      <stop offset="0.45" stop-color="#8a8178"/>
      <stop offset="1" stop-color="#44403c"/>
    </linearGradient>
  </defs>
  <ellipse cx="48" cy="50" rx="14" ry="8" fill="#fff" opacity="0.22"/>
  <path d="M40 46 C58 34 86 38 98 56" stroke="#bae6fd" stroke-width="3" opacity="0.45" fill="none"/>
  <path d="M52 70 L64 86" stroke="#292524" stroke-width="1.6" opacity="0.45"/>
  <ellipse cx="90" cy="86" rx="11" ry="6" fill="#3f6212"/>
  <ellipse cx="38" cy="88" rx="8" ry="5" fill="#3f6212"/>
  <ellipse cx="52" cy="66" rx="7.5" ry="8.5" fill="#fffbeb" stroke="#1c1917"/>
  <ellipse cx="74" cy="66" rx="7.5" ry="8.5" fill="#fffbeb" stroke="#1c1917"/>
  <circle cx="54" cy="67" r="3.2" fill="#0f172a"/>
  <circle cx="76" cy="67" r="3.2" fill="#0f172a"/>
  <circle cx="53" cy="65.5" r="1" fill="#fff"/>
  <circle cx="75" cy="65.5" r="1" fill="#fff"/>
  <path d="M56 82 Q64 90 74 82" stroke="#292524" stroke-width="2.2" fill="none"/>
  <text x="64" y="124" text-anchor="middle" font-family="Segoe UI" font-size="11" font-weight="700" fill="#fbbf24">ROCK</text>
</svg>
